<?xml version="1.0" encoding="UTF-8"?>
<svg version="1.1" xmlns="http://www.w3.org/2000/svg" width="1392" height="114">
<path d="M0 0 C4.23382559 5.05133256 7.13229495 9.77070241 7.11352539 16.47143555 C7.11344986 17.37214279 7.11337433 18.27285004 7.11329651 19.20085144 C7.10813522 20.16968765 7.10297394 21.13852386 7.09765625 22.13671875 C7.0962413 23.13129593 7.09482635 24.12587311 7.09336853 25.15058899 C7.08776761 28.32958982 7.07521496 31.50852043 7.0625 34.6875 C7.05748512 36.84179586 7.05292219 38.99609282 7.04882812 41.15039062 C7.03779787 46.43362084 7.02053262 51.71679851 7 57 C3.7 57 0.4 57 -3 57 C-3.01458252 55.75911621 -3.02916504 54.51823242 -3.04418945 53.23974609 C-3.10230723 48.62129379 -3.17953947 44.00332216 -3.26245117 39.38525391 C-3.29563713 37.38923971 -3.32368868 35.39313311 -3.34643555 33.39697266 C-3.38009793 30.5220616 -3.43241977 27.64799257 -3.48828125 24.7734375 C-3.49467117 23.88570648 -3.5010611 22.99797546 -3.50764465 22.08334351 C-3.62752722 16.99338173 -4.17598797 13.40517012 -7 9 C-10.6799016 5.59609102 -13.26528618 4.1309218 -18.3125 3.75 C-23.66430237 4.11283406 -26.71949363 5.58106051 -30.3125 9.5625 C-32.50527701 12.72984458 -33.12773655 14.38369997 -33.20532227 18.17431641 C-33.22526749 19.03505768 -33.24521271 19.89579895 -33.26576233 20.78262329 C-33.28247482 21.71287323 -33.29918732 22.64312317 -33.31640625 23.6015625 C-33.33718735 24.55316254 -33.35796844 25.50476257 -33.37937927 26.48519897 C-33.44488133 29.53172432 -33.5037628 32.57833743 -33.5625 35.625 C-33.60568459 37.68750916 -33.64929886 39.75000937 -33.69335938 41.8125 C-33.8005634 46.87490954 -33.90182902 51.93740755 -34 57 C-37.63 57 -41.26 57 -45 57 C-45.07469184 51.3441042 -45.1288562 45.68850162 -45.16479492 40.03222656 C-45.17979221 38.11192822 -45.20019682 36.19166361 -45.22631836 34.27148438 C-45.26310351 31.49600858 -45.27981721 28.72098936 -45.29296875 25.9453125 C-45.30845261 25.1001004 -45.32393646 24.25488831 -45.33988953 23.38406372 C-45.3424121 14.25427045 -43.35258138 6.36622423 -36.9609375 -0.30859375 C-26.14714681 -9.63602675 -10.75967504 -9.0855298 0 0 Z " fill="#220E66" transform="translate(638,36)"/>
<path d="M0 0 C3.3 0 6.6 0 10 0 C10 10.23 10 20.46 10 31 C18.50302991 28.69669475 18.50302991 28.69669475 23 23 C23.66 21.68 24.32 20.36 25 19 C28.3 19 31.6 19 35 19 C33.21263877 28.34927412 33.21263877 28.34927412 30 32 C30 32.66 30 33.32 30 34 C31.91196241 35.72122032 33.92671049 37.27633038 35.95703125 38.85546875 C40.57117313 43.69899436 41.34241497 48.58298615 41.26367188 55.01367188 C41.23853516 55.81353516 41.21339844 56.61339844 41.1875 57.4375 C41.16719727 58.67790039 41.16719727 58.67790039 41.14648438 59.94335938 C41.11146992 61.9625264 41.05767562 63.98135318 41 66 C37.7 66 34.4 66 31 66 C30.97421875 64.91460937 30.9484375 63.82921875 30.921875 62.7109375 C30.86556262 61.26558651 30.808216 59.82027556 30.75 58.375 C30.73582031 57.66214844 30.72164062 56.94929688 30.70703125 56.21484375 C30.47283149 51.10928901 29.40364576 48.01919871 26 44 C23.12486559 42.00115157 20.83608706 41.74883452 17.375 41.8125 C16.21097656 41.82216797 16.21097656 41.82216797 15.0234375 41.83203125 C12.9312732 41.87949367 12.9312732 41.87949367 11 43 C10.67 50.59 10.34 58.18 10 66 C6.7 66 3.4 66 0 66 C0 44.22 0 22.44 0 0 Z " fill="#210D66" transform="translate(758,28)"/>
<path d="M0 0 C6.59642161 2.29772527 10.80054503 6.10632146 14.16015625 12.16796875 C16.98358453 18.32698207 17.09259925 25.33928194 15.1640625 31.80078125 C12.45010216 37.80245865 8.96544237 42.07815068 3 45 C-4.10073507 47.38108481 -10.94602172 47.6247361 -18 45 C-23.93074999 42.00341053 -27.47825324 37.82222225 -30.1484375 31.7734375 C-32.27985832 24.83165411 -31.93387631 18.28819381 -29.0625 11.625 C-22.7975201 0.44525138 -11.70050891 -1.20274692 0 0 Z M-19.375 15.75 C-21.51887884 20.03775768 -21.52937142 22.23565719 -21 27 C-18.96911189 31.7031093 -15.56421761 34.71789119 -11 37 C-5.27286952 37.55068562 -2.48243055 36.56556975 2 33 C5.42581041 30.04671516 5.93841191 27.75137468 6.3125 23.1875 C6.23978205 18.78402422 4.90966369 16.36908427 2 13 C-1.26101527 10.24625377 -3.26411399 9.10512657 -7.5 8.5 C-12.98273798 9.28324828 -15.80939601 11.62140591 -19.375 15.75 Z " fill="#210D65" transform="translate(735,47)"/>
<path d="M0 0 C6.59642161 2.29772527 10.80054503 6.10632146 14.16015625 12.16796875 C16.98358453 18.32698207 17.09259925 25.33928194 15.1640625 31.80078125 C12.45010216 37.80245865 8.96544237 42.07815068 3 45 C-4.10073507 47.38108481 -10.94602172 47.6247361 -18 45 C-23.93074999 42.00341053 -27.47825324 37.82222225 -30.1484375 31.7734375 C-32.27985832 24.83165411 -31.93387631 18.28819381 -29.0625 11.625 C-22.7975201 0.44525138 -11.70050891 -1.20274692 0 0 Z M-19.375 15.75 C-21.51887884 20.03775768 -21.52937142 22.23565719 -21 27 C-18.96911189 31.7031093 -15.56421761 34.71789119 -11 37 C-5.27286952 37.55068562 -2.48243055 36.56556975 2 33 C5.42581041 30.04671516 5.93841191 27.75137468 6.3125 23.1875 C6.23978205 18.78402422 4.90966369 16.36908427 2 13 C-1.26101527 10.24625377 -3.26411399 9.10512657 -7.5 8.5 C-12.98273798 9.28324828 -15.80939601 11.62140591 -19.375 15.75 Z " fill="#210D65" transform="translate(683,47)"/>
</svg>
